@startuml
class TMP_ExampleScript_01 {
    + isStatic : bool
    - <<const>> k_label : string = "The count is <#0080ff>{0&#125;</color>"
    - count : int
    Awake() : void
    Update() : void
}
enum objectType {
    TextMeshPro= 0,
    TextMeshProUGUI= 1,
}
MonoBehaviour <|-- TMP_ExampleScript_01
TMP_ExampleScript_01 --> "ObjectType" objectType
TMP_ExampleScript_01 --> "m_text" TMP_Text
TMP_ExampleScript_01 +-- objectType
@enduml
