@startuml
class TMP_TextEventHandler {
    - m_selectedLink : int
    - m_lastCharIndex : int
    - m_lastWordIndex : int
    - m_lastLineIndex : int
    Awake() : void
    LateUpdate() : void
    + OnPointerEnter(eventData:PointerEventData) : void
    + OnPointerExit(eventData:PointerEventData) : void
    - SendOnCharacterSelection(character:char, characterIndex:int) : void
    - SendOnSpriteSelection(character:char, characterIndex:int) : void
    - SendOnWordSelection(word:string, charIndex:int, length:int) : void
    - SendOnLineSelection(line:string, charIndex:int, length:int) : void
    - SendOnLinkSelection(linkID:string, linkText:string, linkIndex:int) : void
}
class CharacterSelectionEvent {
}
class SpriteSelectionEvent {
}
class WordSelectionEvent {
}
class LineSelectionEvent {
}
class LinkSelectionEvent {
}
class "UnityEvent`2"<T1,T2> {
}
class "UnityEvent`3"<T1,T2,T3> {
}
MonoBehaviour <|-- TMP_TextEventHandler
IPointerEnterHandler <|-- TMP_TextEventHandler
IPointerExitHandler <|-- TMP_TextEventHandler
TMP_TextEventHandler --> "onCharacterSelection" CharacterSelectionEvent
TMP_TextEventHandler o-> "m_OnCharacterSelection" CharacterSelectionEvent
TMP_TextEventHandler --> "onSpriteSelection" SpriteSelectionEvent
TMP_TextEventHandler o-> "m_OnSpriteSelection" SpriteSelectionEvent
TMP_TextEventHandler --> "onWordSelection" WordSelectionEvent
TMP_TextEventHandler o-> "m_OnWordSelection" WordSelectionEvent
TMP_TextEventHandler --> "onLineSelection" LineSelectionEvent
TMP_TextEventHandler o-> "m_OnLineSelection" LineSelectionEvent
TMP_TextEventHandler --> "onLinkSelection" LinkSelectionEvent
TMP_TextEventHandler o-> "m_OnLinkSelection" LinkSelectionEvent
TMP_TextEventHandler --> "m_TextComponent" TMP_Text
TMP_TextEventHandler --> "m_Camera" Camera
TMP_TextEventHandler --> "m_Canvas" Canvas
TMP_TextEventHandler +-- CharacterSelectionEvent
"UnityEvent`2" "<char,int>" <|-- CharacterSelectionEvent
TMP_TextEventHandler +-- SpriteSelectionEvent
"UnityEvent`2" "<char,int>" <|-- SpriteSelectionEvent
TMP_TextEventHandler +-- WordSelectionEvent
"UnityEvent`3" "<string,int,int>" <|-- WordSelectionEvent
TMP_TextEventHandler +-- LineSelectionEvent
"UnityEvent`3" "<string,int,int>" <|-- LineSelectionEvent
TMP_TextEventHandler +-- LinkSelectionEvent
"UnityEvent`3" "<string,string,int>" <|-- LinkSelectionEvent
@enduml
