@startuml
class TMP_FrameRateCounter {
    + UpdateInterval : float = 5.0f
    - m_LastInterval : float = 0
    - m_Frames : int = 0
    - htmlColorTag : string
    - <<const>> fpsLabel : string = "{0:2&#125;</color> <#8080ff>FPS \n<#FF8000>{1:2&#125; <#8080ff>MS"
    Awake() : void
    Start() : void
    Update() : void
    Set_FrameCounter_Position(anchor_position:FpsCounterAnchorPositions) : void
}
enum FpsCounterAnchorPositions {
    TopLeft,
    BottomLeft,
    TopRight,
    BottomRight,
}
MonoBehaviour <|-- TMP_FrameRateCounter
TMP_FrameRateCounter o-> "AnchorPosition" FpsCounterAnchorPositions
TMP_FrameRateCounter --> "m_TextMeshPro" TextMeshPro
TMP_FrameRateCounter --> "m_frameCounter_transform" Transform
TMP_FrameRateCounter --> "m_camera" Camera
TMP_FrameRateCounter --> "last_AnchorPosition" FpsCounterAnchorPositions
TMP_FrameRateCounter +-- FpsCounterAnchorPositions
@enduml
