@startuml
class TMPro_InstructionOverlay {
    - <<const>> instructions : string = "Camera Control - <#ffff00>Shift + RMB\n</color>Zoom - <#ffff00>Mouse wheel."
    Awake() : void
    Set_FrameCounter_Position(anchor_position:FpsCounterAnchorPositions) : void
}
enum FpsCounterAnchorPositions {
    TopLeft,
    BottomLeft,
    TopRight,
    BottomRight,
}
MonoBehaviour <|-- TMPro_InstructionOverlay
TMPro_InstructionOverlay o-> "AnchorPosition" FpsCounterAnchorPositions
TMPro_InstructionOverlay --> "m_TextMeshPro" TextMeshPro
TMPro_InstructionOverlay --> "m_textContainer" TextContainer
TMPro_InstructionOverlay --> "m_frameCounter_transform" Transform
TMPro_InstructionOverlay --> "m_camera" Camera
TMPro_InstructionOverlay +-- FpsCounterAnchorPositions
@enduml
